<?xml version="1.0" encoding="UTF-8"?>
<svg width="1400" height="900" xmlns="http://www.w3.org/2000/svg">
  <defs>
    <marker id="arrowhead" markerWidth="10" markerHeight="10" refX="9" refY="3" orient="auto">
      <polygon points="0 0, 10 3, 0 6" fill="black" />
    </marker>
  </defs>
  
  <!-- Title -->
  <text x="700" y="40" font-family="Arial, sans-serif" font-size="24" font-weight="bold" text-anchor="middle">
    Git DAG: From Last PR Merge (Part 3) to Root Commit
  </text>
  
  <!-- Commits positioned from top (tip) to bottom (root) -->
  
  <!-- fda6a47: add 2 complex operations (TIP - Last PR merge from Part 3) -->
  <rect x="500" y="150" width="400" height="90" rx="5" fill="lightblue" stroke="black" stroke-width="3"/>
  <text x="700" y="180" font-family="Arial, sans-serif" font-size="16" font-weight="bold" text-anchor="middle">fda6a47</text>
  <text x="700" y="205" font-family="Arial, sans-serif" font-size="12" text-anchor="middle">calculator.py: add 2 complex operations</text>
  <text x="700" y="225" font-family="Arial, sans-serif" font-size="10" fill="gray" text-anchor="middle">(Last PR merge from Part 3)</text>
  
  <!-- acd36c6: Merge commit (Kaitlyn's PR merge) -->
  <rect x="500" y="300" width="400" height="90" rx="5" fill="lightgreen" stroke="black" stroke-width="3"/>
  <text x="700" y="330" font-family="Arial, sans-serif" font-size="16" font-weight="bold" text-anchor="middle">acd36c6</text>
  <text x="700" y="355" font-family="Arial, sans-serif" font-size="12" text-anchor="middle">Merge main into add-basic-operations</text>
  <text x="700" y="375" font-family="Arial, sans-serif" font-size="12" text-anchor="middle">and resolve conflicts</text>
  
  <!-- Arrow from merge commit to tip -->
  <line x1="700" y1="300" x2="700" y2="150" stroke="black" stroke-width="3" marker-end="url(#arrowhead)"/>
  
  <!-- ac391ed: Add --seed flag (main branch) -->
  <rect x="800" y="450" width="300" height="80" rx="5" fill="lightblue" stroke="black" stroke-width="2"/>
  <text x="950" y="480" font-family="Arial, sans-serif" font-size="14" font-weight="bold" text-anchor="middle">ac391ed</text>
  <text x="950" y="505" font-family="Arial, sans-serif" font-size="11" text-anchor="middle">calculator.py: Add --seed flag</text>
  
  <!-- Arrow from ac391ed to merge commit -->
  <path d="M 950 450 L 800 390" stroke="black" stroke-width="2" marker-end="url(#arrowhead)" fill="none"/>
  
  <!-- df7297e: Add --debug flag (main branch) -->
  <rect x="800" y="580" width="300" height="80" rx="5" fill="lightblue" stroke="black" stroke-width="2"/>
  <text x="950" y="610" font-family="Arial, sans-serif" font-size="14" font-weight="bold" text-anchor="middle">df7297e</text>
  <text x="950" y="635" font-family="Arial, sans-serif" font-size="11" text-anchor="middle">calculator.py: Add --debug flag</text>
  <line x1="950" y1="580" x2="950" y2="450" stroke="black" stroke-width="2" marker-end="url(#arrowhead)"/>
  
  <!-- 03857ea: convert to use logging (main branch) -->
  <rect x="800" y="710" width="300" height="80" rx="5" fill="lightblue" stroke="black" stroke-width="2"/>
  <text x="950" y="740" font-family="Arial, sans-serif" font-size="14" font-weight="bold" text-anchor="middle">03857ea</text>
  <text x="950" y="765" font-family="Arial, sans-serif" font-size="11" text-anchor="middle">calculator.py: convert to use logging</text>
  <line x1="950" y1="710" x2="950" y2="580" stroke="black" stroke-width="2" marker-end="url(#arrowhead)"/>
  
  <!-- 27c7109: add multiply and divide operations (add-basic-operations branch) -->
  <rect x="200" y="450" width="300" height="80" rx="5" fill="lightblue" stroke="black" stroke-width="2"/>
  <text x="350" y="480" font-family="Arial, sans-serif" font-size="14" font-weight="bold" text-anchor="middle">27c7109</text>
  <text x="350" y="505" font-family="Arial, sans-serif" font-size="11" text-anchor="middle">calculator.py: add multiply and</text>
  <text x="350" y="520" font-family="Arial, sans-serif" font-size="11" text-anchor="middle">divide operations</text>
  
  <!-- Arrow from 27c7109 to merge commit -->
  <path d="M 350 450 L 600 390" stroke="black" stroke-width="2" marker-end="url(#arrowhead)" fill="none"/>
  
  <!-- 796eb0e: first functionality (ROOT) -->
  <rect x="500" y="840" width="400" height="80" rx="5" fill="lightblue" stroke="black" stroke-width="3"/>
  <text x="700" y="870" font-family="Arial, sans-serif" font-size="16" font-weight="bold" text-anchor="middle">796eb0e</text>
  <text x="700" y="895" font-family="Arial, sans-serif" font-size="12" text-anchor="middle">calculator.py: first functionality</text>
  <text x="700" y="910" font-family="Arial, sans-serif" font-size="10" fill="gray" text-anchor="middle">(Root commit)</text>
  
  <!-- Arrows from root to branches -->
  <line x1="700" y1="840" x2="950" y2="710" stroke="black" stroke-width="2" marker-end="url(#arrowhead)"/>
  <line x1="700" y1="840" x2="350" y2="450" stroke="black" stroke-width="2" marker-end="url(#arrowhead)"/>
  
  <!-- Branch labels with lines pointing to commits -->
  <!-- main (local and remote) -->
  <line x1="950" y1="150" x2="950" y2="200" stroke="orange" stroke-width="2" stroke-dasharray="5,5"/>
  <rect x="1000" y="150" width="100" height="30" rx="3" fill="lightyellow" stroke="orange" stroke-width="2"/>
  <text x="1050" y="170" font-family="Arial, sans-serif" font-size="11" font-weight="bold" text-anchor="middle">main</text>
  
  <line x1="950" y1="120" x2="950" y2="200" stroke="orange" stroke-width="2" stroke-dasharray="5,5"/>
  <rect x="1000" y="100" width="130" height="30" rx="3" fill="lightyellow" stroke="orange" stroke-width="2"/>
  <text x="1065" y="120" font-family="Arial, sans-serif" font-size="11" font-weight="bold" text-anchor="middle">myrepo/main</text>
  
  <!-- add-complex-operations (local and remote) -->
  <line x1="500" y1="150" x2="500" y2="200" stroke="orange" stroke-width="2" stroke-dasharray="5,5"/>
  <rect x="50" y="150" width="180" height="30" rx="3" fill="lightyellow" stroke="orange" stroke-width="2"/>
  <text x="140" y="170" font-family="Arial, sans-serif" font-size="11" font-weight="bold" text-anchor="middle">add-complex-operations</text>
  
  <line x1="500" y1="120" x2="500" y2="200" stroke="orange" stroke-width="2" stroke-dasharray="5,5"/>
  <rect x="50" y="100" width="200" height="30" rx="3" fill="lightyellow" stroke="orange" stroke-width="2"/>
  <text x="150" y="120" font-family="Arial, sans-serif" font-size="11" font-weight="bold" text-anchor="middle">myrepo/add-complex-operations</text>
  
  <!-- add-basic-operations (local and remote) -->
  <line x1="500" y1="300" x2="500" y2="350" stroke="orange" stroke-width="2" stroke-dasharray="5,5"/>
  <rect x="50" y="300" width="180" height="30" rx="3" fill="lightyellow" stroke="orange" stroke-width="2"/>
  <text x="140" y="320" font-family="Arial, sans-serif" font-size="11" font-weight="bold" text-anchor="middle">add-basic-operations</text>
  
  <line x1="500" y1="270" x2="500" y2="350" stroke="orange" stroke-width="2" stroke-dasharray="5,5"/>
  <rect x="50" y="250" width="200" height="30" rx="3" fill="lightyellow" stroke="orange" stroke-width="2"/>
  <text x="150" y="270" font-family="Arial, sans-serif" font-size="11" font-weight="bold" text-anchor="middle">myrepo/add-basic-operations</text>
  
  <!-- Legend -->
  <rect x="50" y="50" width="250" height="130" rx="5" fill="white" stroke="black" stroke-width="2"/>
  <text x="175" y="75" font-family="Arial, sans-serif" font-size="14" font-weight="bold" text-anchor="middle">Legend</text>
  <rect x="70" y="90" width="40" height="25" rx="3" fill="lightblue" stroke="black" stroke-width="1"/>
  <text x="120" y="107" font-family="Arial, sans-serif" font-size="11">Regular Commit</text>
  <rect x="70" y="120" width="40" height="25" rx="3" fill="lightgreen" stroke="black" stroke-width="1"/>
  <text x="120" y="137" font-family="Arial, sans-serif" font-size="11">Merge Commit</text>
  <rect x="70" y="150" width="40" height="25" rx="3" fill="lightyellow" stroke="orange" stroke-width="2"/>
  <text x="120" y="167" font-family="Arial, sans-serif" font-size="11">Branch Reference</text>
  <line x1="70" y1="180" x2="110" y2="180" stroke="black" stroke-width="2" marker-end="url(#arrowhead)"/>
  <text x="120" y="185" font-family="Arial, sans-serif" font-size="11">Parent → Child</text>
</svg>